<?xml version="1.0" encoding="utf-8"?>
<!-- Generator: Adobe Illustrator 21.0.2, SVG Export Plug-In . SVG Version: 6.00 Build 0)  -->
<svg version="1.1" id="Layer_1" xmlns="http://www.w3.org/2000/svg" xmlns:xlink="http://www.w3.org/1999/xlink" x="0px" y="0px"
	 viewBox="0 0 105.5 26.3" style="enable-background:new 0 0 105.5 26.3;" xml:space="preserve">
<style type="text/css">
	.st0{fill:#FEDB00;}
</style>
<g>
	<path class="st0" d="M64.9,14.5h-2v5H65c1.8,0,2.9-0.6,2.9-2.5C67.8,14.5,65.9,14.5,64.9,14.5z"/>
	<path class="st0" d="M94.6,6.7h-1.7v5.4h1.9c1.8,0,2.5-1.2,2.5-2.8C97.3,6.7,95.4,6.7,94.6,6.7z"/>
	<path class="st0" d="M67.3,9c0-2.2-1.9-2.2-2.8-2.2h-1.7v4.6h1.4C65.4,11.4,67.3,11.4,67.3,9z"/>
	<path class="st0" d="M-3.6-1.9v31.5h112.2V-1.9H-3.6z M16.9,22.8h-4.2V15H8.1v7.9H3.9V3.6h4.2v7.7h4.6V3.6h4.2
		C16.9,3.6,16.9,22.8,16.9,22.8z M33.6,14.4c0,3.4,0,6.1-2.3,7.6c-0.9,0.6-2.2,1.1-4.1,1.1c-6.5,0-6.6-4.4-6.6-8.5v-11h4.2v11
		c0,2.8,0,5.1,2.7,5.1c1.3,0,1.9-0.6,2.2-1.3c0.3-0.7,0.3-1.7,0.3-3.8v-11h3.5L33.6,14.4L33.6,14.4z M55.2,22.8h-3.9V6.7l-3.9,16.1
		h-3.1L40.7,6.7v16.1h-3.4V3.6h6.2l2.7,11.9l3.1-11.9h6L55.2,22.8L55.2,22.8z M70,22c-1.5,0.9-2.9,0.9-4.7,0.9h-6.5V3.6h6.5
		c1.9,0,4.1,0,5.2,1.6c0.7,1,1,2.2,1,3.4c0,3.1-1.8,3.8-2.7,4.1c0.6,0.2,1.2,0.4,1.9,1.2c0.7,0.7,1.3,1.9,1.3,3.5
		C72.1,19.2,71.4,21.1,70,22z M86.7,6.9h-7.5v4.4H85v3.3h-5.8v4.7h7.5v3.4H75V3.6h11.7V6.9z M97.6,22.8L95,15.2h-2.1v7.6h-4.2V3.6h6
		c1.9,0,3.8,0,5.3,1.6c1,1.1,1.4,2.7,1.4,4.2c0,3.4-1.8,4.4-2.7,5l3.5,8.4H97.6z"/>
</g>
</svg>
