<?xml version="1.0" encoding="utf-8"?>
<!-- Generator: Adobe Illustrator 21.0.2, SVG Export Plug-In . SVG Version: 6.00 Build 0)  -->
<svg version="1.1" id="Layer_1" xmlns="http://www.w3.org/2000/svg" xmlns:xlink="http://www.w3.org/1999/xlink" x="0px" y="0px"
	 viewBox="0 0 90.9 26.3" style="enable-background:new 0 0 90.9 26.3;" xml:space="preserve">
<style type="text/css">
	.st0{fill:#FFFFFF;}
</style>
<g>
	<polygon class="st0" points="48.5,15.6 52.3,15.6 50.4,7.7 	"/>
	<path class="st0" d="M65.9,6.7h-1.7v5.4H66c1.8,0,2.5-1.2,2.5-2.8C68.5,6.7,66.6,6.7,65.9,6.7z"/>
	<path class="st0" d="M-1-1v28.3h92.9V-1H-1z M19.9,23h-3.8L13.5,9.6L10.9,23H7.2L3,3.6h4.3l2,13.3l2.5-13.3h3.9L18.1,17l2.4-13.3
		H24L19.9,23z M37.3,6.9h-7.5v4.4h5.8v3.3h-5.8v4.7h7.5v3.4H25.6V3.6h11.7V6.9z M54,22.8l-1-3.9h-5.4l-1,3.9h-3.9l5.8-19.2h4.3
		l5.5,19.2H54z M68.9,22.8l-2.6-7.6h-2.1v7.6H60V3.6h6c1.9,0,3.8,0,5.3,1.6c1,1.1,1.4,2.7,1.4,4.2c0,3.4-1.8,4.4-2.7,5l3.5,8.4H68.9
		z M87.3,6.9h-7.5v4.4h5.8v3.3h-5.8v4.7h7.5v3.4H75.7V3.6h11.7L87.3,6.9L87.3,6.9z"/>
</g>
</svg>
